HIERARCHY
ROOT Hips
{
    OFFSET 0.000000 0.000000 0.000000
    CHANNELS 6 Xposition Yposition Zposition Zrotation Xrotation Yrotation
    JOINT Spine
    {
        OFFSET -0.000000 7.305679 0.000000
        CHANNELS 3 Zrotation Xrotation Yrotation
        JOINT Spine1
        {
            OFFSET -0.000000 20.356625 0.000000
            CHANNELS 3 Zrotation Xrotation Yrotation
            JOINT Neck
            {
                OFFSET -0.000000 22.138498 0.000000
                CHANNELS 3 Zrotation Xrotation Yrotation
                JOINT Head
                {
                    OFFSET -0.000000 13.809516 1.781873
                    CHANNELS 3 Zrotation Xrotation Yrotation
                    End Site
                    {
                        OFFSET -0.000000 17.818729 0.000000
                    }
                }
            }
            JOINT LeftShoulder
            {
                OFFSET 3.599131 17.989975 0.023592
                CHANNELS 3 Zrotation Xrotation Yrotation
                JOINT LeftArm
                {
                    OFFSET 12.560995 0.000000 0.000000
                    CHANNELS 3 Zrotation Xrotation Yrotation
                    JOINT LeftForeArm
                    {
                        OFFSET 22.903347 0.000000 0.000000
                        CHANNELS 3 Zrotation Xrotation Yrotation
                        JOINT LeftHand
                        {
                            OFFSET 21.865294 0.000000 0.000000
                            CHANNELS 3 Zrotation Xrotation Yrotation
                            JOINT LeftHandThumb1
                            {
                                OFFSET 1.853706 -2.106484 2.949078
                                CHANNELS 3 Zrotation Xrotation Yrotation
                                JOINT LeftHandThumb2
                                {
                                    OFFSET 2.049154 0.000000 1.336405
                                    CHANNELS 3 Zrotation Xrotation Yrotation
                                    JOINT LeftHandThumb3
                                    {
                                        OFFSET 2.672809 0.000000 0.000000
                                        CHANNELS 3 Zrotation Xrotation Yrotation
                                        End Site
                                        {
                                            OFFSET 2.381303 0.000000 0.000000
                                        }
                                    }
                                }
                            }
                            JOINT LeftHandIndex1
                            {
                                OFFSET 7.583345 0.000000 2.949078
                                CHANNELS 3 Zrotation Xrotation Yrotation
                                JOINT LeftHandIndex2
                                {
                                    OFFSET 4.454682 0.000000 0.000000
                                    CHANNELS 3 Zrotation Xrotation Yrotation
                                    JOINT LeftHandIndex3
                                    {
                                        OFFSET 2.227341 0.000000 0.000000
                                        CHANNELS 3 Zrotation Xrotation Yrotation
                                        End Site
                                        {
                                            OFFSET 1.984419 0.000000 0.000000
                                        }
                                    }
                                }
                            }
                            JOINT LeftHandMiddle1
                            {
                                OFFSET 7.583345 0.000000 0.977409
                                CHANNELS 3 Zrotation Xrotation Yrotation
                                JOINT LeftHandMiddle2
                                {
                                    OFFSET 4.900151 0.000000 0.000000
                                    CHANNELS 3 Zrotation Xrotation Yrotation
                                    JOINT LeftHandMiddle3
                                    {
                                        OFFSET 2.672809 0.000000 0.000000
                                        CHANNELS 3 Zrotation Xrotation Yrotation
                                        End Site
                                        {
                                            OFFSET 2.381303 0.000000 0.000000
                                        }
                                    }
                                }
                            }
                            JOINT LeftHandRing1
                            {
                                OFFSET 7.162047 0.000000 -0.977409
                                CHANNELS 3 Zrotation Xrotation Yrotation
                                JOINT LeftHandRing2
                                {
                                    OFFSET 4.454682 0.000000 0.000000
                                    CHANNELS 3 Zrotation Xrotation Yrotation
                                    JOINT LeftHandRing3
                                    {
                                        OFFSET 2.227341 0.000000 0.000000
                                        CHANNELS 3 Zrotation Xrotation Yrotation
                                        End Site
                                        {
                                            OFFSET 1.984419 0.000000 0.000000
                                        }
                                    }
                                }
                            }
                            JOINT LeftHandPinky1
                            {
                                OFFSET 6.740750 0.000000 -2.949078
                                CHANNELS 3 Zrotation Xrotation Yrotation
                                JOINT LeftHandPinky2
                                {
                                    OFFSET 3.563746 0.000000 0.000000
                                    CHANNELS 3 Zrotation Xrotation Yrotation
                                    JOINT LeftHandPinky3
                                    {
                                        OFFSET 1.781873 0.000000 0.000000
                                        CHANNELS 3 Zrotation Xrotation Yrotation
                                        End Site
                                        {
                                            OFFSET 1.587536 0.000000 0.000000
                                        }
                                    }
                                }
                            }
                        }
                    }
                }
            }
            JOINT RightShoulder
            {
                OFFSET -3.506995 17.989975 0.023592
                CHANNELS 3 Zrotation Xrotation Yrotation
                JOINT RightArm
                {
                    OFFSET -12.560995 0.000000 0.000000
                    CHANNELS 3 Zrotation Xrotation Yrotation
                    JOINT RightForeArm
                    {
                        OFFSET -22.903347 0.000000 0.000000
                        CHANNELS 3 Zrotation Xrotation Yrotation
                        JOINT RightHand
                        {
                            OFFSET -21.865294 0.000000 0.000000
                            CHANNELS 3 Zrotation Xrotation Yrotation
                            JOINT RightHandThumb1
                            {
                                OFFSET -1.853706 -2.106484 2.949078
                                CHANNELS 3 Zrotation Xrotation Yrotation
                                JOINT RightHandThumb2
                                {
                                    OFFSET -2.049154 0.000000 1.336405
                                    CHANNELS 3 Zrotation Xrotation Yrotation
                                    JOINT RightHandThumb3
                                    {
                                        OFFSET -2.672809 0.000000 0.000000
                                        CHANNELS 3 Zrotation Xrotation Yrotation
                                        End Site
                                        {
                                            OFFSET -2.381303 0.000000 0.000000
                                        }
                                    }
                                }
                            }
                            JOINT RightHandIndex1
                            {
                                OFFSET -7.583345 0.000000 2.949078
                                CHANNELS 3 Zrotation Xrotation Yrotation
                                JOINT RightHandIndex2
                                {
                                    OFFSET -4.454682 0.000000 0.000000
                                    CHANNELS 3 Zrotation Xrotation Yrotation
                                    JOINT RightHandIndex3
                                    {
                                        OFFSET -2.227341 0.000000 0.000000
                                        CHANNELS 3 Zrotation Xrotation Yrotation
                                        End Site
                                        {
                                            OFFSET -1.984419 0.000000 0.000000
                                        }
                                    }
                                }
                            }
                            JOINT RightHandMiddle1
                            {
                                OFFSET -7.583345 0.000000 0.977409
                                CHANNELS 3 Zrotation Xrotation Yrotation
                                JOINT RightHandMiddle2
                                {
                                    OFFSET -4.900151 0.000000 0.000000
                                    CHANNELS 3 Zrotation Xrotation Yrotation
                                    JOINT RightHandMiddle3
                                    {
                                        OFFSET -2.672809 0.000000 0.000000
                                        CHANNELS 3 Zrotation Xrotation Yrotation
                                        End Site
                                        {
                                            OFFSET -2.381303 0.000000 0.000000
                                        }
                                    }
                                }
                            }
                            JOINT RightHandRing1
                            {
                                OFFSET -7.162047 0.000000 -0.977409
                                CHANNELS 3 Zrotation Xrotation Yrotation
                                JOINT RightHandRing2
                                {
                                    OFFSET -4.454682 0.000000 0.000000
                                    CHANNELS 3 Zrotation Xrotation Yrotation
                                    JOINT RightHandRing3
                                    {
                                        OFFSET -2.227341 0.000000 0.000000
                                        CHANNELS 3 Zrotation Xrotation Yrotation
                                        End Site
                                        {
                                            OFFSET -1.984419 0.000000 0.000000
                                        }
                                    }
                                }
                            }
                            JOINT RightHandPinky1
                            {
                                OFFSET -6.740750 0.000000 -2.949078
                                CHANNELS 3 Zrotation Xrotation Yrotation
                                JOINT RightHandPinky2
                                {
                                    OFFSET -3.563746 0.000000 0.000000
                                    CHANNELS 3 Zrotation Xrotation Yrotation
                                    JOINT RightHandPinky3
                                    {
                                        OFFSET -1.781873 0.000000 0.000000
                                        CHANNELS 3 Zrotation Xrotation Yrotation
                                        End Site
                                        {
                                            OFFSET -1.587536 0.000000 0.000000
                                        }
                                    }
                                }
                            }
                        }
                    }
                }
            }
        }
    }
    JOINT LeftUpLeg
    {
        OFFSET 8.909365 0.000000 0.000000
        CHANNELS 3 Zrotation Xrotation Yrotation
        JOINT LeftLeg
        {
            OFFSET -0.000000 -38.765560 0.000000
            CHANNELS 3 Zrotation Xrotation Yrotation
            JOINT LeftFoot
            {
                OFFSET -0.000000 -35.244961 0.000000
                CHANNELS 3 Zrotation Xrotation Yrotation
                JOINT LeftToeBase
                {
                    OFFSET -0.000000 -5.791087 13.364048
                    CHANNELS 3 Zrotation Xrotation Yrotation
                    End Site
                    {
                        OFFSET -0.000000 0.000000 3.563746
                    }
                }
            }
        }
    }
    JOINT RightUpLeg
    {
        OFFSET -8.909365 0.000000 0.000000
        CHANNELS 3 Zrotation Xrotation Yrotation
        JOINT RightLeg
        {
            OFFSET -0.000000 -38.765560 0.000000
            CHANNELS 3 Zrotation Xrotation Yrotation
            JOINT RightFoot
            {
                OFFSET -0.000000 -35.244961 0.000000
                CHANNELS 3 Zrotation Xrotation Yrotation
                JOINT RightToeBase
                {
                    OFFSET -0.000000 -5.791087 13.364048
                    CHANNELS 3 Zrotation Xrotation Yrotation
                    End Site
                    {
                        OFFSET -0.000000 0.000000 3.563746
                    }
                }
            }
        }
    }
}
MOTION
Frames:    4
Frame Time:    0.008333
-4.815301    82.092346    107.767197    -0.481367    -4.644439    -1.696347    0.297209    1.453232    -1.808811    -0.886852    4.539390    -0.566618    1.541752    -0.974344    -2.334065    0.774832    1.597339    -2.329948    0.995715    5.297562    -9.410709    -87.333588    25.839071    -2.470749    10.093576    -12.654128    -0.137882    -1.220862    -33.169167    8.935130    -0.034719    1.378761    1.613302    -0.000000    0.000000    1.704639    -0.000000    0.000000    3.409278    -11.086617    1.347481    -6.843309    -22.334375    0.000000    0.000000    -11.167188    0.000000    0.000000    -21.671402    -1.988681    0.696953    -43.488060    0.000000    0.000000    -21.744028    0.000000    0.000000    -31.783875    -6.626037    7.534531    -64.641724    0.000000    0.000000    -32.320869    0.000000    0.000000    -41.703472    -12.552914    13.707296    -86.436424    0.000000    0.000000    -43.218216    0.000000    0.000000    -3.009040    -1.596612    -0.246415    97.018791    46.653374    -10.363644    -10.578218    -39.320763    1.370833    15.690695    -45.025394    -1.183853    1.333546    -2.892811    5.459648    0.000000    0.000000    0.000000    0.000000    0.000000    0.000000    18.788095    0.000000    -0.000000    37.576191    0.000000    -0.000000    18.788095    0.000000    -0.000000    24.880114    -0.969800    -1.608109    49.796352    0.000000    -0.000000    24.898180    0.000000    -0.000000    30.945581    -2.104435    -3.104962    62.016518    0.000000    -0.000000    31.008263    0.000000    -0.000000    37.168194    -3.431704    -4.514248    74.606979    0.000000    -0.000000    37.303493    0.000000    -0.000000    -1.467465    0.396521    -0.549189    1.112161    11.829431    11.228175    -2.938036    -7.247128    -8.249709    0.075018    0.600457    -0.112663    1.711289    -0.559878    0.763336    -0.417842    13.234898    -6.250113    0.719473    -9.041152    4.435032    -0.317703    -2.124348    0.288044    
-4.823093    82.093460    107.755386    -0.478814    -4.642223    -1.662606    0.269461    1.459045    -1.835228    -0.857643    4.548544    -0.576660    1.536291    -0.962876    -2.332308    0.772062    1.593671    -2.328226    0.990874    5.299532    -9.410519    -87.339729    25.841402    -2.466005    10.083403    -12.651067    -0.124585    -1.232117    -33.171082    8.922644    -0.035308    1.388452    1.624400    -0.000000    0.000000    1.714924    -0.000000    0.000000    3.429848    -11.100432    1.351450    -6.854592    -22.362747    0.000000    0.000000    -11.181374    0.000000    0.000000    -21.674784    -1.983644    0.687887    -43.494068    0.000000    0.000000    -21.747038    0.000000    0.000000    -31.776724    -6.619102    7.528642    -64.625389    0.000000    0.000000    -32.312702    0.000000    0.000000    -41.685062    -12.543475    13.706061    -86.397049    0.000000    0.000000    -43.198524    0.000000    0.000000    -3.008013    -1.598354    -0.257803    96.990944    46.626015    -10.344375    -10.573630    -39.343483    1.382833    15.642309    -45.040886    -1.209288    1.321062    -2.909630    5.476538    0.000000    0.000000    0.000000    0.000000    0.000000    0.000000    18.804865    0.000000    -0.000000    37.609730    0.000000    -0.000000    18.804865    0.000000    -0.000000    24.907278    -0.970189    -1.606363    49.850674    0.000000    -0.000000    24.925339    0.000000    -0.000000    30.983168    -2.105298    -3.101232    62.091610    0.000000    -0.000000    31.045805    0.000000    -0.000000    37.216572    -3.433095    -4.508189    74.703484    0.000000    -0.000000    37.351746    0.000000    -0.000000    -1.463182    0.397440    -0.587971    1.110847    11.799003    11.222343    -2.936143    -7.221758    -8.239084    0.075001    0.598951    -0.112805    1.714764    -0.553582    0.766821    -0.410703    13.205999    -6.298431    0.716914    -9.024813    4.444969    -0.317897    -2.123616    0.288430    
-4.830780    82.094864    107.742882    -0.475783    -4.637033    -1.631655    0.242378    1.463234    -1.858894    -0.830948    4.555735    -0.585594    1.532597    -0.950432    -2.331705    0.770959    1.592679    -2.327710    0.985592    5.301826    -9.409545    -87.343803    25.841730    -2.463000    10.075425    -12.650602    -0.113459    -1.247683    -33.179501    8.905660    -0.035324    1.399018    1.637266    -0.000000    0.000000    1.726701    -0.000000    0.000000    3.453401    -11.103780    1.353568    -6.863129    -22.369896    0.000000    0.000000    -11.184948    0.000000    0.000000    -21.669847    -1.979744    0.681440    -43.483627    0.000000    0.000000    -21.741816    0.000000    0.000000    -31.763489    -6.612838    7.525207    -64.597359    0.000000    0.000000    -32.298691    0.000000    0.000000    -41.663002    -12.534451    13.706950    -86.350922    0.000000    0.000000    -43.175461    0.000000    0.000000    -3.006113    -1.600115    -0.269275    96.963501    46.600674    -10.324461    -10.568626    -39.361290    1.389940    15.598520    -45.057468    -1.230526    1.303326    -2.925600    5.488182    0.000000    0.000000    0.000000    0.000000    0.000000    0.000000    18.815245    0.000000    -0.000000    37.630493    0.000000    -0.000000    18.815245    0.000000    -0.000000    24.928057    -0.970683    -1.605196    49.892246    0.000000    -0.000000    24.946123    0.000000    -0.000000    31.014372    -2.106431    -3.098646    62.154003    0.000000    -0.000000    31.077000    0.000000    -0.000000    37.258537    -3.434984    -4.503832    74.787308    0.000000    -0.000000    37.393654    0.000000    -0.000000    -1.459780    0.396162    -0.626776    1.109911    11.766460    11.217538    -2.934286    -7.195212    -8.226798    0.074989    0.597704    -0.112924    1.717388    -0.550020    0.770032    -0.403535    13.175004    -6.346165    0.714256    -9.006692    4.457529    -0.317971    -2.122688    0.288644    
-4.838192    82.096497    107.729546    -0.471972    -4.628680    -1.603815    0.216226    1.466230    -1.879217    -0.807304    4.560326    -0.593426    1.530556    -0.937479    -2.332359    0.771607    1.594541    -2.328599    0.979786    5.304518    -9.408023    -87.345367    25.840357    -2.462146    10.069217    -12.651652    -0.104084    -1.265010    -33.192829    8.884848    -0.034001    1.409241    1.651361    -0.000000    0.000000    1.739425    -0.000000    0.000000    3.478851    -11.097184    1.353815    -6.868510    -22.356867    0.000000    0.000000    -11.178432    0.000000    0.000000    -21.657700    -1.977767    0.678745    -43.459103    0.000000    0.000000    -21.729549    0.000000    0.000000    -31.745760    -6.608981    7.525898    -64.561333    0.000000    0.000000    -32.280663    0.000000    0.000000    -41.639198    -12.528677    13.712008    -86.303040    0.000000    0.000000    -43.151516    0.000000    0.000000    -3.004135    -1.601629    -0.280226    96.937996    46.577908    -10.304301    -10.563731    -39.373226    1.392403    15.558429    -45.075455    -1.248931    1.283416    -2.938957    5.494126    0.000000    0.000000    0.000000    0.000000    0.000000    0.000000    18.820887    0.000000    -0.000000    37.641773    0.000000    -0.000000    18.820887    0.000000    -0.000000    24.943321    -0.971367    -1.604743    49.922787    0.000000    -0.000000    24.961391    0.000000    -0.000000    31.039242    -2.107997    -3.097478    62.203796    0.000000    -0.000000    31.101904    0.000000    -0.000000    37.293327    -3.437613    -4.501609    74.856949    0.000000    -0.000000    37.428482    0.000000    -0.000000    -1.457926    0.392206    -0.664055    1.110028    11.732052    11.213290    -2.932174    -7.167351    -8.213524    0.074949    0.596365    -0.112989    1.718452    -0.550474    0.773063    -0.395759    13.143877    -6.391001    0.711061    -8.987642    4.470536    -0.318047    -2.121926    0.288843    
